<svg id="Layer_1" data-name="Layer 1" xmlns="http://www.w3.org/2000/svg" viewBox="0 0 350 160"><defs><style>.cls-1{fill:#fff;}.cls-2{fill:#58b347;}</style></defs><rect class="cls-1" width="350" height="160"/><path d="M119.18,79.27a6.75,6.75,0,0,1,3.72,6.36c-.06,5.41-3.31,9.81-9.67,9.81H98.68V64.38h13.26a9.54,9.54,0,0,1,9.68,9.41v.13A7.09,7.09,0,0,1,119.18,79.27Zm-12.85-7.78v5h5c3.18,0,3.18-5-.06-5Zm0,11.63V88.4h6.36c3.18,0,3.18-5.28-.07-5.28Z"/><path d="M144.42,86.3c0-2.16-2.57-2.63-5.68-2.84-6.77-.54-11.17-2.77-11.3-9.54-.27-13.39,23.88-13.39,23.68,0h-7.58c0-4.12-8.32-3.79-8.66-.06-.2,2.36,2.1,2.84,4.94,3.18,6.16.67,12.24,1.62,12.24,9.33,0,13.06-25.3,13.26-25.1-.4h7.72c0,3.92,9.74,4,9.74.33Z"/><path d="M155.65,79.94c0-21.51,31.87-21.51,31.87,0S155.65,101.46,155.65,79.94Zm23.75,0c0-11.16-15.56-11.16-15.56,0S179.4,91.24,179.4,79.94Z"/><path d="M200.1,88.27h11.3v7.17H192.12V64.38h8Z"/><path d="M231.76,85V64.38h7.58V85.09c0,6.83-5.88,10.75-12.31,10.75s-12.32-3.92-12.32-10.75V64.38h7.58V85c0,2.57,2.44,3.79,4.74,3.79S231.76,87.52,231.76,85Z"/><path d="M243.33,71.49V64.38H266.4v7.11h-7.57v24H251v-24Z"/><path d="M289.88,71.49h-11.5v4.4h10.55v7H278.38V88.4h11.91v7H270.53V64.38H290Z"/><path d="M82.11,64.38H78.72L64.45,95.44h8.18l7.79-18.61,7.84,18.61h8.26Z"/><path class="cls-2" d="M50.31,95.44,64.58,64.38h7.58L57.89,95.44Z"/><path d="M293.06,67.16c0-1.69,1-2.78,3.32-2.78s3.31,1.09,3.31,2.78v1.49c0,1.76-1.08,2.77-3.31,2.77s-3.32-1.08-3.32-2.77Zm.61,1.49c0,1.48.88,2.23,2.71,2.23s2.7-.75,2.7-2.23V67.23c0-1.49-.88-2.24-2.7-2.24s-2.71.75-2.71,2.24Zm3-.21h-1v1.29H295V66.08h1.63c.94,0,1.28.33,1.28,1.08a1,1,0,0,1-.61,1.08l.68,1.42h-.68Zm-1-.61h1a.5.5,0,0,0,.61-.47v-.13a.54.54,0,0,0-.61-.61h-1Z"/></svg>