<svg xmlns="http://www.w3.org/2000/svg" version="1.0" width="60" height="60" viewBox="0 0 128 128"><rect width="100%" height="100%" fill="none"/><g><path d="M122.5 69.25H96.47a33.1 33.1 0 000-10.5h26.05a5.25 5.25 0 010 10.5zm-10.46 28.58L89.47 84.8a33.1 33.1 0 005.25-9.1l22.57 13.03a5.25 5.25 0 01-5.28 9.1zm-23.36 19.52L75.65 94.78a33.1 33.1 0 009.1-5.25l13.02 22.57a5.25 5.25 0 11-9.1 5.25zm-29.98 5.22V96.5a33.1 33.1 0 0010.5 0v26.07a5.25 5.25 0 01-10.5 0zM30.1 112.1l13.04-22.57a33.1 33.1 0 009.1 5.25L39.2 117.35a5.25 5.25 0 11-9.1-5.25zM10.6 88.74L33.16 75.7a33.1 33.1 0 005.25 9.1L15.88 97.83a5.25 5.25 0 11-5.25-9.1zM5.37 58.75h26.06a33.1 33.1 0 000 10.5H5.37a5.25 5.25 0 010-10.5zm10.48-28.58L38.4 43.2a33.1 33.1 0 00-5.24 9.1L10.6 39.25a5.25 5.25 0 115.25-9.1zM39.2 10.65l13.03 22.57a33.1 33.1 0 00-9.1 5.25l-13-22.57a5.25 5.25 0 119.1-5.25zm30-5.22V31.5a33.1 33.1 0 00-10.5 0V5.42a5.25 5.25 0 1110.5 0z" fill="rgba(255,255,255,1)"/><animateTransform attributeName="transform" type="rotate" values="0 64 64;30 64 64;60 64 64;90 64 64;120 64 64;150 64 64;180 64 64;210 64 64;240 64 64;270 64 64;300 64 64;330 64 64" calcMode="discrete" dur="1500ms" repeatCount="indefinite"/></g></svg>