<?xml version="1.0" encoding="UTF-8"?>
<svg id="Layer_1" xmlns="http://www.w3.org/2000/svg" viewBox="0 0 351.14 160.06">
  <defs>
    <style>
      .cls-1 {
        fill: #d6162f;
      }

      .cls-2 {
        fill: #fff;
      }
    </style>
  </defs>
  <rect width="351.14" height="160.06"/>
  <g>
    <g>
      <path class="cls-2" d="M86.53,63.34l1.61,13.73c.42,3.16.68,5.38.89,7.39h.12c.68-2.01,1.33-4,2.64-7.39l5.45-13.76h9.43l-10.93,22.67c-3.95,8.09-7.65,13.8-11.74,17.59-3.32,3.16-7.3,4.66-9.22,5.01l-2.25-7.67c1.45-.49,3.39-1.26,5.1-2.46,2.06-1.45,3.81-3.28,4.89-5.29.26-.49.3-.82.14-1.5l-5.66-28.42h9.5v.12l.02-.02Z"/>
      <path class="cls-2" d="M117.95,51.6l-3.16,15.49h.14c2.2-2.71,5.47-4.4,9.17-4.4,6.34,0,8.91,5.38,8.91,10.55,0,10.36-6.57,21.92-20.03,21.92-7.09,0-10.6-3.02-10.55-8.42,0-1.87.3-3.77.68-5.47l5.9-29.64h8.96l-.02-.02ZM111.96,81.61c-.23,1.05-.42,2.13-.33,3.44.07,2.08,1.24,3.28,3.28,3.28,5.1,0,8.66-7.86,8.66-13.12,0-2.9-1.08-5.19-3.72-5.19-3.06,0-6.11,3.25-7.11,8.28l-.75,3.32h-.02Z"/>
      <path class="cls-2" d="M180.11,62.66c-2.71,0-7.21,1.71-9.36,5.26h-.19c.44-2.2.61-2.76.94-4.52l-8.14-.05c-.44,2.76-1.01,7.67-1.87,12.19l-1.05,5.64c-2.95,3.81-10.6,6.85-13.62,6.85-2.62,0-4.54-.82-5.66-2.34-.68-.94-.94-2.34-.94-3.21,11.81.3,19.39-2.62,19.39-10.62-.05-5.57-4.21-9.22-10.43-9.22-11.04,0-17.59,10.11-17.59,19.51,0,7.86,4.28,12.87,13.01,12.91,4.37.05,10.69-2.32,14.13-4.77l-.77,4.14h9.03l2.27-12c1.12-5.97,3.91-10.93,9.4-10.93.49,0,1.01.05,1.38.07l1.75-8.84c-.56-.05-1.12-.07-1.68-.07v-.02ZM148.08,69.38c1.97,0,3.16,1.05,3.16,2.57v.07c0,2.88-3.51,4-10.15,3.88.63-3.13,3.02-6.53,6.97-6.53h.02Z"/>
      <path class="cls-2" d="M187.01,51.62h9.03l-6.64,34.97h15.49l-1.5,7.86h-24.47l8.09-42.86v.02Z"/>
      <path class="cls-2" d="M205.94,94.48l5.92-31.14h8.98l-5.9,31.14h-9.03.02Z"/>
      <path class="cls-2" d="M219.37,94.48l3.95-20.96c.75-3.88,1.26-7.35,1.68-10.15h7.95l-.56,4.96h.14c2.81-3.84,6.48-5.64,10.48-5.64,5.01,0,7.67,3.13,7.67,8.23,0,1.45-.26,3.72-.56,5.33l-3.46,18.2h-9.03l3.32-17.57c.19-1.08.33-2.32.33-3.44,0-2.06-.7-3.51-2.88-3.51-2.76,0-6.08,3.58-7.35,10.25l-2.69,14.25h-9.03l.02.05Z"/>
      <path class="cls-2" d="M250.25,94.48l8.21-42.86h8.96l-4.37,22.55h.12c.94-1.24,9.85-10.81,9.85-10.81h10.88l-12.68,12.98,7.98,18.13h-9.92l-6.83-16.4-3.25,16.4h-8.96.02Z"/>
      <path class="cls-2" d="M217.54,59.25c-2.71,0-4.63-1.94-4.59-4.77,0-3.21,2.5-5.57,5.52-5.57s4.82,1.89,4.82,4.77c-.05,3.51-2.64,5.57-5.71,5.57h-.05Z"/>
    </g>
    <path class="cls-2" d="M76.61,52.56c-2.43-1.01-5.08-1.5-8.59-1.5-6.83,0-11.74,1.71-16.49,5.73-2.71,2.27-4.91,5.03-6.48,8.16-1.75,3.58-2.69,7.46-2.69,11.18,0,11.74,7.35,18.79,19.65,18.79,2.13,0,4.19-.19,6.48-.63,2.69-.51,4-1.08,7.04-2.46l.42-.19-1.94-7.42-.56.26c-2.32,1.05-3.28,1.43-5.03,1.8-1.5.33-2.9.49-4.21.49-7.39,0-11.98-4.28-11.98-11.16,0-9.36,6.85-16.68,15.58-16.68,1.68,0,3.65.33,5.15.89,1.15.42,1.8.77,2.99,1.68l4.21-6.92c-1.45-1.01-2.27-1.5-3.58-2.06l.02.02Z"/>
    <path class="cls-1" d="M284.03,85.45c14.76,3.65,23.6,7.84,23.6,13.24,0,11.25-39.28,20.4-87.68,20.4-39.54,0-71.61-7.21-83.73-15.07l.33-1.31c14.32,5.08,42.06,8.49,74,8.49,46.53,0,84.29-7.3,84.29-16.38,0-2.99-4.09-5.78-11.35-8.21l.51-1.19.02.02Z"/>
  </g>
</svg>
