<svg width="21" height="21" fill="none" xmlns="http://www.w3.org/2000/svg"><path d="M17.601.794c1.172 0 2.117.947 2.173 2.062v17.938L17.543 18.9l-1.225-1.115-1.337-1.165.559 1.837H3.84c-1.168 0-2.116-.887-2.116-2.063V2.86c0-1.115.95-2.065 2.12-2.065h13.75L17.6.793zM12.503 5.53h-.025l-.168.166c1.727.5 2.563 1.281 2.563 1.281-1.113-.556-2.117-.835-3.12-.947-.725-.113-1.45-.054-2.063 0h-.166c-.392 0-1.225.166-2.342.612-.39.17-.612.28-.612.28s.835-.835 2.675-1.28l-.113-.113S7.74 5.476 6.235 6.587c0 0-1.505 2.62-1.505 5.85 0 0 .834 1.45 3.12 1.505 0 0 .333-.444.67-.835-1.283-.39-1.783-1.17-1.783-1.17s.112.055.28.167h.05c.024 0 .036.012.05.025v.005c.013.013.024.025.05.025.274.113.55.225.774.333.481.206.985.356 1.5.447.775.112 1.664.167 2.675 0 .5-.113 1-.223 1.5-.446.325-.167.725-.333 1.164-.614 0 0-.5.78-1.837 1.17.275.388.662.833.662.833 2.287-.05 3.175-1.5 3.225-1.438 0-3.225-1.512-5.85-1.512-5.85-1.363-1.012-2.638-1.05-2.863-1.05l.047-.017v.003zm.14 3.677c.586 0 1.058.5 1.058 1.113 0 .616-.475 1.116-1.058 1.116-.583 0-1.058-.5-1.058-1.111.001-.617.477-1.115 1.058-1.115v-.003zm-3.786 0c.583 0 1.055.5 1.055 1.113 0 .616-.475 1.116-1.058 1.116-.584 0-1.059-.5-1.059-1.111 0-.617.475-1.115 1.059-1.115l.003-.003z" fill="#5F72D1"/></svg>