<?xml version="1.0" encoding="UTF-8"?>
<svg id="Layer_1" data-name="Layer 1" xmlns="http://www.w3.org/2000/svg" viewBox="0 0 350 160">
  <defs>
    <style>
      .cls-1 {
        fill: #1e1919;
      }

      .cls-2 {
        fill: #fff;
      }
    </style>
  </defs>
  <rect class="cls-2" x="0" width="350" height="160"/>
  <g>
    <g>
      <path class="cls-1" d="M24.77,46.79h3v23.83h14.97v2.77h-17.98v-26.6Z"/>
      <path class="cls-1" d="M43.77,63.63v-.08c0-5.66,3.95-10.22,9.42-10.22,5.81,0,9.16,4.64,9.16,10.38,0,.42,0,.61-.04.95h-15.58c.42,4.26,3.42,6.65,6.92,6.65,2.74,0,4.56-1.1,6.19-2.77l1.82,1.63c-1.98,2.24-4.33,3.69-8.09,3.69-5.36,0-9.8-4.14-9.8-10.22ZM59.39,62.49c-.3-3.53-2.32-6.69-6.27-6.69-3.46,0-5.97,2.89-6.38,6.69h12.66Z"/>
      <path class="cls-1" d="M65.53,53.75h2.93v3.42c1.33-2.13,3.34-3.84,6.73-3.84,4.71,0,7.52,3.19,7.52,7.87v12.2h-2.93v-11.48c0-3.65-1.94-5.93-5.43-5.93s-5.89,2.47-5.89,6.16v11.25h-2.93v-19.65Z"/>
      <path class="cls-1" d="M85.69,63.67v-.08c0-5.59,4.29-10.26,10.26-10.26s10.22,4.64,10.22,10.19v.08c0,5.59-4.37,10.26-10.3,10.26s-10.18-4.64-10.18-10.18ZM103.17,63.67v-.08c0-4.22-3.15-7.68-7.3-7.68s-7.18,3.46-7.18,7.6v.08c0,4.22,3.12,7.64,7.26,7.64s7.22-3.46,7.22-7.56Z"/>
      <path class="cls-1" d="M106.29,53.75h3.23l6.61,16.3,6.65-16.3h3.15l-8.55,19.8h-2.58l-8.51-19.8Z"/>
      <path class="cls-1" d="M126.05,63.67v-.08c0-5.59,4.29-10.26,10.26-10.26s10.22,4.64,10.22,10.19v.08c0,5.59-4.37,10.26-10.3,10.26s-10.18-4.64-10.18-10.18ZM143.53,63.67v-.08c0-4.22-3.15-7.68-7.3-7.68s-7.18,3.46-7.18,7.6v.08c0,4.22,3.12,7.64,7.26,7.64s7.22-3.46,7.22-7.56Z"/>
      <path class="cls-1" d="M161.32,43.07h2.43v35.19h-2.43v-35.19Z"/>
    </g>
    <g>
      <path class="cls-1" d="M23.02,97.55v-.08c0-7.56,5.7-13.76,13.87-13.76,4.98,0,8.06,1.67,10.49,4.1l-3.72,4.29c-2.09-1.86-4.1-3-6.8-3-4.48,0-7.71,3.72-7.71,8.28v.08c0,4.56,3.15,8.36,7.71,8.36,3.04,0,4.9-1.18,6.99-3.12l3.72,3.76c-2.74,2.93-5.74,4.75-10.91,4.75-7.83,0-13.64-6.04-13.64-13.68Z"/>
      <path class="cls-1" d="M49.3,83.03h5.78v27.74h-5.78v-27.74Z"/>
      <path class="cls-1" d="M57.38,100.7v-.08c0-5.85,4.71-10.6,11.06-10.6s10.98,4.64,10.98,10.53v.08c0,5.85-4.71,10.6-11.06,10.6s-10.98-4.64-10.98-10.53ZM73.72,100.7v-.08c0-3-2.17-5.62-5.36-5.62s-5.28,2.51-5.28,5.55v.08c0,3,2.17,5.62,5.36,5.62s5.28-2.51,5.28-5.55Z"/>
      <path class="cls-1" d="M81.47,103.59v-13.19h5.78v11.36c0,2.74,1.25,4.14,3.5,4.14s3.61-1.41,3.61-4.14v-11.36h5.78v20.37h-5.78v-2.89c-1.33,1.71-3.08,3.27-5.97,3.27-4.41,0-6.92-2.85-6.92-7.56Z"/>
      <path class="cls-1" d="M102.47,100.63v-.08c0-6.8,4.45-10.53,9.27-10.53,3.08,0,4.98,1.41,6.35,3.04v-10.03h5.78v27.74h-5.78v-2.93c-1.41,1.94-3.31,3.31-6.35,3.31-4.75,0-9.27-3.72-9.27-10.53ZM118.16,100.63v-.08c0-3.38-2.24-5.62-4.94-5.62s-4.98,2.2-4.98,5.62v.08c0,3.38,2.28,5.62,4.98,5.62s4.94-2.24,4.94-5.62Z"/>
      <path class="cls-1" d="M135.72,106.9l3.46-4.14c2.43,1.98,4.9,3.23,7.94,3.23,2.43,0,3.84-.95,3.84-2.51v-.08c0-1.48-.91-2.28-5.36-3.38-5.4-1.33-8.82-2.89-8.82-8.13v-.08c0-4.83,3.84-8.02,9.31-8.02,3.91,0,7.14,1.22,9.88,3.38l-3.04,4.41c-2.39-1.63-4.64-2.62-6.92-2.62s-3.42.99-3.42,2.32v.08c0,1.79,1.14,2.28,5.74,3.5,5.4,1.44,8.44,3.34,8.44,7.98v.08c0,5.28-4.03,8.25-9.77,8.25-4.07,0-8.09-1.37-11.29-4.26Z"/>
      <path class="cls-1" d="M159.91,105v-9.65h-2.43v-4.94h2.43v-5.21h5.78v5.21h4.79v4.94h-4.79v8.7c0,1.33.61,1.98,1.86,1.98,1.03,0,1.98-.23,2.85-.72v4.64c-1.22.72-2.62,1.18-4.56,1.18-3.5,0-5.93-1.41-5.93-6.12Z"/>
      <path class="cls-1" d="M171.37,100.7v-.08c0-5.85,4.71-10.6,11.06-10.6s10.98,4.64,10.98,10.53v.08c0,5.85-4.71,10.6-11.06,10.6s-10.98-4.64-10.98-10.53ZM187.71,100.7v-.08c0-3-2.17-5.62-5.36-5.62s-5.28,2.51-5.28,5.55v.08c0,3,2.17,5.62,5.36,5.62s5.28-2.51,5.28-5.55Z"/>
      <path class="cls-1" d="M195.6,90.4h5.78v4.1c1.18-2.77,3.04-4.64,6.5-4.48v6.04h-.3c-3.84,0-6.19,2.28-6.19,7.18v7.52h-5.78v-20.37Z"/>
      <path class="cls-1" d="M207.55,104.92v-.08c0-4.41,3.38-6.5,8.21-6.5,2.09,0,3.5.34,4.98.84v-.34c0-2.43-1.48-3.72-4.37-3.72-2.24,0-3.76.38-5.62,1.1l-1.44-4.41c2.24-.95,4.45-1.63,7.9-1.63,3.19,0,5.4.8,6.88,2.28s2.2,3.76,2.2,6.5v11.82h-5.59v-2.2c-1.41,1.56-3.31,2.58-6.16,2.58-3.84,0-6.99-2.17-6.99-6.23ZM220.81,103.59v-1.03c-1.03-.46-2.28-.76-3.69-.76-2.47,0-3.99.99-3.99,2.81v.08c0,1.56,1.29,2.47,3.15,2.47,2.74,0,4.52-1.44,4.52-3.57Z"/>
      <path class="cls-1" d="M229.27,114.8l1.98-4.33c2.13,1.18,4.14,1.86,6.88,1.86,3.95,0,5.82-1.9,5.82-5.55v-.99c-1.71,2.09-3.57,3.31-6.65,3.31-4.75,0-9.04-3.42-9.04-9.5v-.08c0-6.08,4.37-9.5,9.04-9.5,3.15,0,5.02,1.33,6.57,3.04v-2.66h5.78v15.77c0,3.61-.87,6.31-2.58,8.02-1.94,1.94-4.83,2.74-8.78,2.74-3.34,0-6.42-.76-9.01-2.13ZM243.94,99.6v-.08c0-2.77-2.13-4.71-4.98-4.71s-4.94,1.94-4.94,4.71v.08c0,2.85,2.09,4.71,4.94,4.71s4.98-1.94,4.98-4.71Z"/>
      <path class="cls-1" d="M251.9,100.7v-.08c0-5.81,4.14-10.6,10.07-10.6,6.8,0,9.92,5.28,9.92,11.06,0,.46-.04.95-.08,1.52h-14.18c.57,2.62,2.39,3.99,4.98,3.99,1.94,0,3.31-.61,4.94-2.09l3.31,2.93c-1.94,2.39-4.64,3.8-8.32,3.8-6.12,0-10.64-4.29-10.64-10.53ZM266.26,98.99c-.34-2.58-1.86-4.33-4.29-4.33s-3.95,1.71-4.41,4.33h8.7Z"/>
    </g>
    <g>
      <path class="cls-1" d="M179.82,46.79h9.24c8.36,0,14.14,5.74,14.14,13.23v.08c0,7.49-5.78,13.3-14.14,13.3h-9.24v-26.6ZM182.83,49.57v21.05h6.23c6.73,0,11.02-4.52,11.02-10.45v-.08c0-5.89-4.29-10.53-11.02-10.53h-6.23Z"/>
      <path class="cls-1" d="M207.15,53.75h2.93v5.13c1.44-3.27,4.29-5.59,8.02-5.47v3.15h-.23c-4.29,0-7.79,3.08-7.79,9.01v7.83h-2.93v-19.65Z"/>
      <path class="cls-1" d="M218.52,63.67v-.08c0-5.59,4.29-10.26,10.26-10.26s10.22,4.64,10.22,10.19v.08c0,5.59-4.37,10.26-10.3,10.26s-10.18-4.64-10.18-10.18ZM236,63.67v-.08c0-4.22-3.15-7.68-7.3-7.68s-7.18,3.46-7.18,7.6v.08c0,4.22,3.12,7.64,7.26,7.64s7.22-3.46,7.22-7.56Z"/>
      <path class="cls-1" d="M242.21,53.75h2.93v3.95c1.63-2.32,3.88-4.37,7.52-4.37,4.71,0,9.39,3.72,9.39,10.19v.08c0,6.38-4.64,10.22-9.39,10.22-3.65,0-6-1.94-7.52-4.18v9.84h-2.93v-25.73ZM259.05,63.63v-.08c0-4.67-3.15-7.6-6.92-7.6s-7.11,3.12-7.11,7.56v.08c0,4.56,3.46,7.6,7.11,7.6s6.92-2.81,6.92-7.56Z"/>
      <path class="cls-1" d="M268.3,69.63v3.76h-2.93v-27.74h2.93v12.05c1.63-2.32,3.88-4.37,7.52-4.37,4.71,0,9.39,3.72,9.39,10.19v.08c0,6.38-4.64,10.22-9.39,10.22-3.65,0-6-1.94-7.52-4.18ZM282.21,63.63v-.08c0-4.67-3.15-7.6-6.92-7.6s-7.11,3.12-7.11,7.56v.08c0,4.56,3.46,7.6,7.11,7.6s6.92-2.81,6.92-7.56Z"/>
      <path class="cls-1" d="M287.39,63.67v-.08c0-5.59,4.29-10.26,10.26-10.26s10.22,4.64,10.22,10.19v.08c0,5.59-4.37,10.26-10.3,10.26s-10.18-4.64-10.18-10.18ZM304.87,63.67v-.08c0-4.22-3.15-7.68-7.3-7.68s-7.18,3.46-7.18,7.6v.08c0,4.22,3.12,7.64,7.26,7.64s7.22-3.46,7.22-7.56Z"/>
      <path class="cls-1" d="M317.56,61.43l5.85-7.68h3.27l-7.45,9.61,7.75,10.03h-3.38l-6.08-8.09-6.12,8.09h-3.27l7.68-9.99-7.37-9.65h3.34l5.78,7.68Z"/>
    </g>
  </g>
</svg>