<svg width="350" height="160" viewBox="0 0 350 160" fill="none" xmlns="http://www.w3.org/2000/svg">
<rect width="350" height="160" fill="white"/>
<mask id="mask0_8635_3461" style="mask-type:alpha" maskUnits="userSpaceOnUse" x="0" y="0" width="350" height="160">
<rect width="350" height="160" fill="white"/>
<rect width="350" height="160" stroke="#FF5F00"/>
</mask>
<g mask="url(#mask0_8635_3461)">
<path d="M83.5 33.5C36.5498 42.8554 -4.5 40.8333 -19 37.5L-24 29.5V-20H360L363.5 12.5C290.5 16.5 219 6.5 83.5 33.5Z" fill="#FF5F00"/>
<path d="M258.5 129.788C305.45 120.432 346.5 122.454 361 125.788L366 133.788L366 183.288L-18 183.288L-18 150.788C52.5 145.121 123 156.788 258.5 129.788Z" fill="#FF5F00"/>
</g>
<path d="M124.046 77.5239C126.152 74.185 129.389 71.2764 132.645 69.0124H117.552C118.995 57.8825 125.613 56.9021 134.269 57.0088C136.033 57.0607 137.796 57.1154 139.665 57.1154L141.429 44.8151H141.268C138.917 44.7613 136.62 44.6546 134.269 44.6546C120.325 44.547 107.129 46.1451 103.334 63.4566C100.77 75.1217 96.8699 94.5126 94.626 107.35H112.582L116.754 81.8534C116.757 81.7049 116.794 81.559 116.862 81.4267H121.926C122.308 80.5774 122.733 79.7479 123.199 78.9412C123.339 78.6878 123.489 78.442 123.636 78.1926C123.768 77.9663 123.904 77.7408 124.046 77.5239Z" fill="#FF5F00"/>
<path d="M146.444 69.0269C135.662 69.0269 125.763 77.722 124.335 88.4474C122.907 99.1729 130.491 107.867 141.271 107.867C152.051 107.867 161.95 99.1729 163.379 88.4474C164.808 77.722 157.226 69.0269 146.444 69.0269ZM152.731 88.4474C152.082 93.3223 147.583 97.2734 142.683 97.2734C137.783 97.2734 134.336 93.3223 134.985 88.4474C135.634 83.5726 140.133 79.6206 145.034 79.6206C149.934 79.6206 153.38 83.5726 152.731 88.4474Z" fill="#FF5F00"/>
<path d="M224.461 65.2501L225.478 55.6543H217.709H211.655L209.995 65.2501H217.709H224.461Z" fill="#FF5F00"/>
<path d="M203.63 107.867H220.185L223.024 81.0456H227.725L226.547 92.0179C225.475 102.196 232.44 108.185 241.874 107.761L248.677 107.548L249.91 96.3657H245.678C242.891 96.3657 240.267 95.4633 240.749 91.3296L241.82 80.9928H251.357L252.803 69.2247H242.673L243.638 60.0547H230.03L229.065 69.2247H209.47L203.525 107.655" fill="#FF5F00"/>
<path d="M183.231 101.873C182.637 102.035 182.073 102.189 181.53 102.337L184.672 107.863H199.929L193.817 97.1123C191.249 98.7094 187.913 100.283 183.416 101.812L183.231 101.873Z" fill="#FF5F00"/>
<path d="M180.451 73.5853L177.895 69.0879H162.633L169.5 81.1665C172.428 78.1419 176.181 75.5459 180.451 73.5853Z" fill="#FF5F00"/>
<path d="M163.168 106.214C163.168 106.214 163.722 96.2341 168.092 89.022C171.76 81.425 181.456 75.0642 192.46 73.2361C192.46 73.2361 201.705 71.1076 204.569 69.4548C204.569 69.4548 207.684 67.4513 206.278 72.1093C206.278 72.1093 204.408 76.6186 198.659 79.5459C197.303 80.223 196.294 80.3741 196.509 81.6614C196.894 82.9702 199.094 81.9759 199.395 81.8255C199.919 81.3961 205.018 80.0086 201.62 84.8445C198.204 89.853 196.13 94.3977 182.865 98.9045C174.022 101.309 170.506 102.661 165.38 107.268C162.816 109.075 163.168 106.214 163.168 106.214Z" fill="#FF5F00"/>
</svg>
