<svg width="20" height="21" fill="none" xmlns="http://www.w3.org/2000/svg"><g clip-path="url(#clip0_5127_41519)"><path d="M4.338 10.87c0-.635.108-1.244.297-1.815L1.309 6.537A9.706 9.706 0 00.295 10.87c0 1.557.365 3.027 1.012 4.33l3.325-2.521a5.737 5.737 0 01-.294-1.809" fill="#FBBC05"/><path d="M10.181 5.09a5.751 5.751 0 013.64 1.289l2.875-2.845c-1.752-1.512-3.999-2.446-6.515-2.446-3.907 0-7.265 2.214-8.872 5.449l3.328 2.518a5.82 5.82 0 015.545-3.965" fill="#EA4335"/><path d="M10.222 16.523c-2.607 0-4.803-1.648-5.574-3.94l-3.343 2.502C2.92 18.3 6.295 20.5 10.223 20.5c2.422 0 4.735-.843 6.472-2.423l-3.174-2.404c-.895.553-2.023.85-3.3.85" fill="#34A853"/><path d="M19.707 10.779c0-.575-.09-1.194-.226-1.768h-9.258v3.756h5.329a4.374 4.374 0 01-2.03 2.906l3.174 2.404c1.824-1.658 3.01-4.13 3.01-7.298z" fill="#4285F4"/></g><defs><clipPath id="clip0_5127_41519"><path fill="#fff" transform="translate(0 .794)" d="M0 0h20v20H0z"/></clipPath></defs></svg>