<svg width="242" height="29" viewBox="0 0 242 29" fill="none" xmlns="http://www.w3.org/2000/svg">
<g clip-path="url(#clip0_11590_24737)">
<path d="M13.3718 21.7941C13.4686 23.0119 12.4563 24.0248 11.2386 23.9274C10.2803 23.851 9.50443 23.0745 9.42803 22.1162C9.33121 20.8984 10.3435 19.8861 11.5613 19.9829C12.5196 20.0593 13.2954 20.8352 13.3718 21.7935V21.7941ZM17.712 19.9836C16.4943 19.8868 15.482 20.8991 15.5788 22.1168C15.6552 23.0751 16.4317 23.8516 17.3893 23.9274C18.6071 24.0242 19.62 23.0112 19.5226 21.7941C19.4462 20.8358 18.6697 20.06 17.712 19.9836ZM23.0251 8.3624C22.6681 7.8961 22.1142 7.65307 21.5307 7.70181L10.9949 7.69786C10.3389 7.69786 9.86666 8.32815 10.0517 8.95778C10.1887 9.42342 10.6162 9.7435 11.1022 9.7435H21.2297L20.4519 12.1619L12.3898 12.1586C11.6983 12.1586 11.1997 12.8219 11.3933 13.4857C11.5178 13.9138 11.9103 14.2089 12.3562 14.2082L20.4604 14.2036C21.2883 14.2036 22.0266 13.7103 22.3427 12.9477L22.3796 12.8429L23.2714 10.0359C23.4802 9.47216 23.388 8.83725 23.0251 8.36305V8.3624ZM19.7281 16.649H10.2315C10.0498 16.649 9.88642 16.5272 9.83505 16.3527L7.68007 8.49609C7.54374 7.9995 7.09259 7.65505 6.5769 7.65505C5.94463 7.65505 5.48624 8.25702 5.65418 8.86689L7.877 16.9323C8.18325 17.9676 9.15141 18.6914 10.2315 18.6914H19.7551C20.357 18.6914 20.8372 18.1704 20.7693 17.5546C20.712 17.0337 20.2523 16.6497 19.7281 16.6497V16.649ZM14.5 29C10.6267 29 6.9859 27.4918 4.24673 24.7533C1.50822 22.0141 0 18.3733 0 14.5C0 10.6267 1.50822 6.9859 4.24673 4.24673C6.9859 1.50822 10.6267 0 14.5 0C18.3733 0 22.0141 1.50822 24.7533 4.24673C27.4924 6.98524 29 10.6267 29 14.5C29 18.3733 27.4918 22.0141 24.7533 24.7533C22.0148 27.4924 18.3733 29 14.5 29ZM14.5 1.84411C7.52135 1.84411 1.84411 7.52135 1.84411 14.5C1.84411 21.4787 7.52135 27.1559 14.5 27.1559C21.4787 27.1559 27.1559 21.4787 27.1559 14.5C27.1559 7.52135 21.4787 1.84411 14.5 1.84411Z" fill="url(#paint0_linear_11590_24737)"/>
</g>
<path d="M45.064 18.724V20.5H38.288V8.932H40.44V18.724H45.064ZM51.5546 15.452C51.5546 15.196 51.5173 14.956 51.4426 14.732C51.3733 14.5027 51.2666 14.3027 51.1226 14.132C50.9786 13.9613 50.7946 13.828 50.5706 13.732C50.352 13.6307 50.096 13.58 49.8026 13.58C49.232 13.58 48.7813 13.7427 48.4506 14.068C48.1253 14.3933 47.9173 14.8547 47.8266 15.452H51.5546ZM47.7866 16.644C47.8186 17.0653 47.8933 17.4307 48.0106 17.74C48.128 18.044 48.2826 18.2973 48.4746 18.5C48.6666 18.6973 48.8933 18.8467 49.1546 18.948C49.4213 19.044 49.7146 19.092 50.0346 19.092C50.3546 19.092 50.6293 19.0547 50.8586 18.98C51.0933 18.9053 51.296 18.8227 51.4666 18.732C51.6426 18.6413 51.7946 18.5587 51.9226 18.484C52.056 18.4093 52.184 18.372 52.3066 18.372C52.472 18.372 52.5946 18.4333 52.6746 18.556L53.2426 19.276C53.024 19.532 52.7786 19.748 52.5066 19.924C52.2346 20.0947 51.9493 20.2333 51.6506 20.34C51.3573 20.4413 51.056 20.5133 50.7466 20.556C50.4426 20.5987 50.1466 20.62 49.8586 20.62C49.288 20.62 48.7573 20.5267 48.2666 20.34C47.776 20.148 47.3493 19.868 46.9866 19.5C46.624 19.1267 46.3386 18.668 46.1306 18.124C45.9226 17.5747 45.8186 16.94 45.8186 16.22C45.8186 15.66 45.9093 15.1347 46.0906 14.644C46.272 14.148 46.5306 13.7187 46.8666 13.356C47.208 12.988 47.6213 12.6973 48.1066 12.484C48.5973 12.2707 49.1493 12.164 49.7626 12.164C50.28 12.164 50.7573 12.2467 51.1946 12.412C51.632 12.5773 52.008 12.82 52.3226 13.14C52.6373 13.4547 52.8826 13.844 53.0586 14.308C53.24 14.7667 53.3306 15.292 53.3306 15.884C53.3306 16.1827 53.2986 16.3853 53.2346 16.492C53.1706 16.5933 53.048 16.644 52.8666 16.644H47.7866ZM57.0615 13.3C57.2268 13.1347 57.4002 12.9827 57.5815 12.844C57.7682 12.7 57.9628 12.58 58.1655 12.484C58.3735 12.3827 58.5948 12.3053 58.8295 12.252C59.0642 12.1933 59.3202 12.164 59.5975 12.164C60.0455 12.164 60.4428 12.2413 60.7895 12.396C61.1362 12.5453 61.4242 12.7587 61.6535 13.036C61.8882 13.308 62.0642 13.636 62.1815 14.02C62.3042 14.3987 62.3655 14.8173 62.3655 15.276V20.5H60.3895V15.276C60.3895 14.7747 60.2748 14.388 60.0455 14.116C59.8162 13.8387 59.4668 13.7 58.9975 13.7C58.6562 13.7 58.3362 13.7773 58.0375 13.932C57.7388 14.0867 57.4562 14.2973 57.1895 14.564V20.5H55.2135V12.292H56.4215C56.6775 12.292 56.8455 12.412 56.9255 12.652L57.0615 13.3ZM68.2768 12.164C68.8848 12.164 69.4368 12.2627 69.9328 12.46C70.4341 12.6573 70.8608 12.9373 71.2128 13.3C71.5701 13.6627 71.8448 14.1053 72.0368 14.628C72.2288 15.1507 72.3248 15.7347 72.3248 16.38C72.3248 17.0307 72.2288 17.6173 72.0368 18.14C71.8448 18.6627 71.5701 19.108 71.2128 19.476C70.8608 19.844 70.4341 20.1267 69.9328 20.324C69.4368 20.5213 68.8848 20.62 68.2768 20.62C67.6634 20.62 67.1061 20.5213 66.6048 20.324C66.1034 20.1267 65.6741 19.844 65.3168 19.476C64.9648 19.108 64.6901 18.6627 64.4928 18.14C64.3008 17.6173 64.2048 17.0307 64.2048 16.38C64.2048 15.7347 64.3008 15.1507 64.4928 14.628C64.6901 14.1053 64.9648 13.6627 65.3168 13.3C65.6741 12.9373 66.1034 12.6573 66.6048 12.46C67.1061 12.2627 67.6634 12.164 68.2768 12.164ZM68.2768 19.1C68.9594 19.1 69.4634 18.8707 69.7888 18.412C70.1194 17.9533 70.2848 17.2813 70.2848 16.396C70.2848 15.5107 70.1194 14.836 69.7888 14.372C69.4634 13.908 68.9594 13.676 68.2768 13.676C67.5834 13.676 67.0688 13.9107 66.7328 14.38C66.4021 14.844 66.2368 15.516 66.2368 16.396C66.2368 17.276 66.4021 17.948 66.7328 18.412C67.0688 18.8707 67.5834 19.1 68.2768 19.1ZM81.3822 12.292L78.1262 20.5H76.3342L73.0782 12.292H74.7102C74.8596 12.292 74.9822 12.3267 75.0782 12.396C75.1796 12.4653 75.2462 12.5533 75.2782 12.66L76.8622 17.044C76.9476 17.3 77.0222 17.5507 77.0862 17.796C77.1502 18.0413 77.2062 18.2867 77.2542 18.532C77.3076 18.2867 77.3662 18.0413 77.4302 17.796C77.4942 17.5507 77.5716 17.3 77.6622 17.044L79.2782 12.66C79.3156 12.5533 79.3822 12.4653 79.4782 12.396C79.5742 12.3267 79.6889 12.292 79.8222 12.292H81.3822ZM86.2174 12.164C86.8254 12.164 87.3774 12.2627 87.8734 12.46C88.3747 12.6573 88.8014 12.9373 89.1534 13.3C89.5107 13.6627 89.7854 14.1053 89.9774 14.628C90.1694 15.1507 90.2654 15.7347 90.2654 16.38C90.2654 17.0307 90.1694 17.6173 89.9774 18.14C89.7854 18.6627 89.5107 19.108 89.1534 19.476C88.8014 19.844 88.3747 20.1267 87.8734 20.324C87.3774 20.5213 86.8254 20.62 86.2174 20.62C85.604 20.62 85.0467 20.5213 84.5454 20.324C84.044 20.1267 83.6147 19.844 83.2574 19.476C82.9054 19.108 82.6307 18.6627 82.4334 18.14C82.2414 17.6173 82.1454 17.0307 82.1454 16.38C82.1454 15.7347 82.2414 15.1507 82.4334 14.628C82.6307 14.1053 82.9054 13.6627 83.2574 13.3C83.6147 12.9373 84.044 12.6573 84.5454 12.46C85.0467 12.2627 85.604 12.164 86.2174 12.164ZM86.2174 19.1C86.9 19.1 87.404 18.8707 87.7294 18.412C88.06 17.9533 88.2254 17.2813 88.2254 16.396C88.2254 15.5107 88.06 14.836 87.7294 14.372C87.404 13.908 86.9 13.676 86.2174 13.676C85.524 13.676 85.0094 13.9107 84.6734 14.38C84.3427 14.844 84.1774 15.516 84.1774 16.396C84.1774 17.276 84.3427 17.948 84.6734 18.412C85.0094 18.8707 85.524 19.1 86.2174 19.1ZM102.935 11.036C102.871 11.148 102.802 11.2307 102.727 11.284C102.658 11.332 102.57 11.356 102.463 11.356C102.351 11.356 102.229 11.316 102.095 11.236C101.967 11.1507 101.813 11.0573 101.631 10.956C101.45 10.8547 101.237 10.764 100.991 10.684C100.751 10.5987 100.466 10.556 100.135 10.556C99.8368 10.556 99.5755 10.5933 99.3515 10.668C99.1275 10.7373 98.9382 10.836 98.7835 10.964C98.6342 11.092 98.5222 11.2467 98.4475 11.428C98.3728 11.604 98.3355 11.7987 98.3355 12.012C98.3355 12.284 98.4102 12.5107 98.5595 12.692C98.7142 12.8733 98.9168 13.028 99.1675 13.156C99.4182 13.284 99.7035 13.3987 100.023 13.5C100.343 13.6013 100.671 13.7107 101.007 13.828C101.343 13.94 101.671 14.0733 101.991 14.228C102.311 14.3773 102.597 14.5693 102.847 14.804C103.098 15.0333 103.298 15.316 103.447 15.652C103.602 15.988 103.679 16.396 103.679 16.876C103.679 17.3987 103.589 17.8893 103.407 18.348C103.231 18.8013 102.97 19.1987 102.623 19.54C102.282 19.876 101.863 20.1427 101.367 20.34C100.871 20.532 100.303 20.628 99.6635 20.628C99.2955 20.628 98.9328 20.5907 98.5755 20.516C98.2182 20.4467 97.8742 20.3453 97.5435 20.212C97.2182 20.0787 96.9115 19.9187 96.6235 19.732C96.3355 19.5453 96.0795 19.3373 95.8555 19.108L96.4875 18.076C96.5408 18.0013 96.6102 17.94 96.6955 17.892C96.7808 17.8387 96.8715 17.812 96.9675 17.812C97.1008 17.812 97.2448 17.868 97.3995 17.98C97.5542 18.0867 97.7382 18.2067 97.9515 18.34C98.1648 18.4733 98.4128 18.596 98.6955 18.708C98.9835 18.8147 99.3275 18.868 99.7275 18.868C100.341 18.868 100.815 18.724 101.151 18.436C101.487 18.1427 101.655 17.724 101.655 17.18C101.655 16.876 101.578 16.628 101.423 16.436C101.274 16.244 101.074 16.084 100.823 15.956C100.573 15.8227 100.287 15.7107 99.9675 15.62C99.6475 15.5293 99.3222 15.4307 98.9915 15.324C98.6608 15.2173 98.3355 15.0893 98.0155 14.94C97.6955 14.7907 97.4102 14.596 97.1595 14.356C96.9088 14.116 96.7062 13.8173 96.5515 13.46C96.4022 13.0973 96.3275 12.652 96.3275 12.124C96.3275 11.7027 96.4102 11.292 96.5755 10.892C96.7462 10.492 96.9915 10.1373 97.3115 9.828C97.6315 9.51867 98.0262 9.27067 98.4955 9.084C98.9648 8.89733 99.5035 8.804 100.111 8.804C100.794 8.804 101.423 8.91067 101.999 9.124C102.575 9.33733 103.066 9.636 103.471 10.02L102.935 11.036ZM112.576 12.292V20.5H111.368C111.107 20.5 110.941 20.38 110.872 20.14L110.736 19.484C110.4 19.8253 110.029 20.1027 109.624 20.316C109.219 20.524 108.741 20.628 108.192 20.628C107.744 20.628 107.347 20.5533 107 20.404C106.659 20.2493 106.371 20.0333 106.136 19.756C105.901 19.4787 105.723 19.1507 105.6 18.772C105.483 18.388 105.424 17.9667 105.424 17.508V12.292H107.4V17.508C107.4 18.0093 107.515 18.3987 107.744 18.676C107.979 18.948 108.328 19.084 108.792 19.084C109.133 19.084 109.453 19.0093 109.752 18.86C110.051 18.7053 110.333 18.4947 110.6 18.228V12.292H112.576ZM116.911 18.372C117.135 18.644 117.378 18.836 117.639 18.948C117.906 19.06 118.186 19.116 118.479 19.116C118.783 19.116 119.055 19.0627 119.295 18.956C119.541 18.844 119.749 18.6733 119.919 18.444C120.09 18.2093 120.221 17.9133 120.311 17.556C120.402 17.1933 120.447 16.7613 120.447 16.26C120.447 15.3587 120.298 14.708 119.999 14.308C119.701 13.9027 119.271 13.7 118.711 13.7C118.333 13.7 118.002 13.788 117.719 13.964C117.437 14.1347 117.167 14.3773 116.911 14.692V18.372ZM116.911 13.3C117.242 12.9533 117.607 12.6787 118.007 12.476C118.413 12.268 118.874 12.164 119.391 12.164C119.866 12.164 120.293 12.2573 120.671 12.444C121.055 12.6307 121.381 12.9 121.647 13.252C121.919 13.5987 122.127 14.02 122.271 14.516C122.415 15.012 122.487 15.5693 122.487 16.188C122.487 16.8547 122.405 17.46 122.239 18.004C122.074 18.548 121.837 19.0147 121.527 19.404C121.223 19.788 120.855 20.0867 120.423 20.3C119.991 20.5133 119.511 20.62 118.983 20.62C118.727 20.62 118.495 20.5933 118.287 20.54C118.079 20.492 117.887 20.4227 117.711 20.332C117.535 20.2413 117.373 20.132 117.223 20.004C117.079 19.8707 116.941 19.724 116.807 19.564L116.719 20.116C116.687 20.2547 116.631 20.3533 116.551 20.412C116.477 20.4707 116.373 20.5 116.239 20.5H114.935V8.612H116.911V13.3ZM129.422 13.892C129.368 13.9773 129.312 14.0387 129.254 14.076C129.195 14.108 129.12 14.124 129.03 14.124C128.934 14.124 128.83 14.0973 128.718 14.044C128.611 13.9907 128.486 13.932 128.342 13.868C128.198 13.7987 128.032 13.7373 127.845 13.684C127.664 13.6307 127.448 13.604 127.198 13.604C126.808 13.604 126.502 13.6867 126.278 13.852C126.059 14.0173 125.95 14.2333 125.95 14.5C125.95 14.676 126.006 14.8253 126.118 14.948C126.235 15.0653 126.387 15.1693 126.574 15.26C126.766 15.3507 126.982 15.4333 127.222 15.508C127.462 15.5773 127.704 15.6547 127.95 15.74C128.2 15.8253 128.446 15.924 128.686 16.036C128.926 16.1427 129.139 16.2813 129.326 16.452C129.518 16.6173 129.67 16.8173 129.782 17.052C129.899 17.2867 129.958 17.5693 129.958 17.9C129.958 18.2947 129.886 18.66 129.742 18.996C129.603 19.3267 129.395 19.6147 129.118 19.86C128.84 20.1 128.496 20.2893 128.086 20.428C127.68 20.5613 127.211 20.628 126.678 20.628C126.395 20.628 126.118 20.6013 125.846 20.548C125.579 20.5 125.32 20.4307 125.07 20.34C124.824 20.2493 124.595 20.1427 124.382 20.02C124.174 19.8973 123.99 19.764 123.83 19.62L124.286 18.868C124.344 18.7773 124.414 18.708 124.493 18.66C124.573 18.612 124.675 18.588 124.798 18.588C124.92 18.588 125.035 18.6227 125.142 18.692C125.254 18.7613 125.382 18.836 125.526 18.916C125.67 18.996 125.838 19.0707 126.03 19.14C126.227 19.2093 126.475 19.244 126.774 19.244C127.008 19.244 127.208 19.2173 127.374 19.164C127.544 19.1053 127.683 19.0307 127.79 18.94C127.902 18.8493 127.981 18.7453 128.03 18.628C128.083 18.5053 128.11 18.38 128.11 18.252C128.11 18.06 128.051 17.9027 127.934 17.78C127.822 17.6573 127.67 17.5507 127.477 17.46C127.291 17.3693 127.075 17.2893 126.83 17.22C126.59 17.1453 126.342 17.0653 126.086 16.98C125.835 16.8947 125.587 16.796 125.342 16.684C125.102 16.5667 124.886 16.42 124.694 16.244C124.507 16.068 124.355 15.852 124.238 15.596C124.126 15.34 124.07 15.0307 124.07 14.668C124.07 14.332 124.136 14.012 124.27 13.708C124.403 13.404 124.598 13.14 124.854 12.916C125.115 12.6867 125.438 12.5053 125.822 12.372C126.211 12.2333 126.659 12.164 127.166 12.164C127.731 12.164 128.246 12.2573 128.71 12.444C129.174 12.6307 129.56 12.876 129.87 13.18L129.422 13.892ZM137.725 14.028C137.666 14.1027 137.607 14.1613 137.549 14.204C137.495 14.2467 137.415 14.268 137.309 14.268C137.207 14.268 137.109 14.2387 137.013 14.18C136.917 14.116 136.802 14.0467 136.669 13.972C136.535 13.892 136.375 13.8227 136.189 13.764C136.007 13.7 135.781 13.668 135.509 13.668C135.162 13.668 134.858 13.732 134.597 13.86C134.335 13.9827 134.117 14.1613 133.941 14.396C133.77 14.6307 133.642 14.916 133.557 15.252C133.471 15.5827 133.429 15.9587 133.429 16.38C133.429 16.8173 133.474 17.2067 133.565 17.548C133.661 17.8893 133.797 18.1773 133.973 18.412C134.149 18.6413 134.362 18.8173 134.613 18.94C134.863 19.0573 135.146 19.116 135.461 19.116C135.775 19.116 136.029 19.0787 136.221 19.004C136.418 18.924 136.583 18.8387 136.717 18.748C136.85 18.652 136.965 18.5667 137.061 18.492C137.162 18.412 137.274 18.372 137.397 18.372C137.557 18.372 137.677 18.4333 137.757 18.556L138.325 19.276C138.106 19.532 137.869 19.748 137.613 19.924C137.357 20.0947 137.09 20.2333 136.813 20.34C136.541 20.4413 136.258 20.5133 135.965 20.556C135.677 20.5987 135.389 20.62 135.101 20.62C134.594 20.62 134.117 20.5267 133.669 20.34C133.221 20.148 132.829 19.8707 132.493 19.508C132.157 19.1453 131.89 18.7027 131.693 18.18C131.501 17.652 131.405 17.052 131.405 16.38C131.405 15.7773 131.49 15.22 131.661 14.708C131.837 14.1907 132.093 13.7453 132.429 13.372C132.765 12.9933 133.181 12.6973 133.677 12.484C134.173 12.2707 134.743 12.164 135.389 12.164C136.002 12.164 136.538 12.2627 136.997 12.46C137.461 12.6573 137.877 12.94 138.245 13.308L137.725 14.028ZM141.828 13.716C142.084 13.2253 142.388 12.8413 142.74 12.564C143.092 12.2813 143.508 12.14 143.988 12.14C144.366 12.14 144.67 12.2227 144.9 12.388L144.772 13.868C144.745 13.964 144.705 14.0333 144.652 14.076C144.604 14.1133 144.537 14.132 144.452 14.132C144.372 14.132 144.252 14.1187 144.092 14.092C143.937 14.0653 143.785 14.052 143.636 14.052C143.417 14.052 143.222 14.084 143.052 14.148C142.881 14.212 142.726 14.3053 142.588 14.428C142.454 14.5453 142.334 14.6893 142.228 14.86C142.126 15.0307 142.03 15.2253 141.94 15.444V20.5H139.964V12.292H141.124C141.326 12.292 141.468 12.3293 141.548 12.404C141.628 12.4733 141.681 12.6013 141.708 12.788L141.828 13.716ZM148.38 12.292V20.5H146.396V12.292H148.38ZM148.652 9.9C148.652 10.0707 148.618 10.2307 148.548 10.38C148.479 10.5293 148.386 10.66 148.268 10.772C148.156 10.884 148.023 10.9747 147.868 11.044C147.714 11.108 147.548 11.14 147.372 11.14C147.202 11.14 147.039 11.108 146.884 11.044C146.735 10.9747 146.604 10.884 146.492 10.772C146.38 10.66 146.29 10.5293 146.22 10.38C146.156 10.2307 146.124 10.0707 146.124 9.9C146.124 9.724 146.156 9.55867 146.22 9.404C146.29 9.24933 146.38 9.116 146.492 9.004C146.604 8.892 146.735 8.804 146.884 8.74C147.039 8.67067 147.202 8.636 147.372 8.636C147.548 8.636 147.714 8.67067 147.868 8.74C148.023 8.804 148.156 8.892 148.268 9.004C148.386 9.116 148.479 9.24933 148.548 9.404C148.618 9.55867 148.652 9.724 148.652 9.9ZM152.771 18.372C152.995 18.644 153.237 18.836 153.499 18.948C153.765 19.06 154.053 19.116 154.363 19.116C154.661 19.116 154.931 19.06 155.171 18.948C155.411 18.836 155.613 18.6653 155.779 18.436C155.949 18.2067 156.08 17.9187 156.171 17.572C156.261 17.22 156.307 16.8067 156.307 16.332C156.307 15.852 156.267 15.4467 156.187 15.116C156.112 14.78 156.003 14.508 155.859 14.3C155.715 14.092 155.539 13.94 155.331 13.844C155.128 13.748 154.896 13.7 154.635 13.7C154.224 13.7 153.875 13.788 153.587 13.964C153.299 14.1347 153.027 14.3773 152.771 14.692V18.372ZM152.667 13.412C153.003 13.0333 153.384 12.7267 153.811 12.492C154.237 12.2573 154.739 12.14 155.315 12.14C155.763 12.14 156.171 12.2333 156.539 12.42C156.912 12.6067 157.232 12.8787 157.499 13.236C157.771 13.588 157.979 14.0253 158.123 14.548C158.272 15.0653 158.347 15.66 158.347 16.332C158.347 16.9453 158.264 17.5133 158.099 18.036C157.933 18.5587 157.696 19.012 157.387 19.396C157.083 19.78 156.712 20.0813 156.275 20.3C155.843 20.5133 155.357 20.62 154.819 20.62C154.36 20.62 153.968 20.5507 153.643 20.412C153.317 20.268 153.027 20.0707 152.771 19.82V23.18H150.795V12.292H152.003C152.259 12.292 152.427 12.412 152.507 12.652L152.667 13.412ZM162.915 20.628C162.2 20.628 161.651 20.428 161.267 20.028C160.888 19.6227 160.699 19.0653 160.699 18.356V13.772H159.859C159.752 13.772 159.662 13.7373 159.587 13.668C159.512 13.5987 159.475 13.4947 159.475 13.356V12.572L160.795 12.356L161.211 10.116C161.238 10.0093 161.288 9.92667 161.363 9.868C161.438 9.80933 161.534 9.78 161.651 9.78H162.675V12.364H164.867V13.772H162.675V18.22C162.675 18.476 162.736 18.676 162.859 18.82C162.987 18.964 163.16 19.036 163.379 19.036C163.502 19.036 163.603 19.0227 163.683 18.996C163.768 18.964 163.84 18.932 163.899 18.9C163.963 18.868 164.019 18.8387 164.067 18.812C164.115 18.78 164.163 18.764 164.211 18.764C164.27 18.764 164.318 18.78 164.355 18.812C164.392 18.8387 164.432 18.8813 164.475 18.94L165.067 19.9C164.779 20.14 164.448 20.3213 164.075 20.444C163.702 20.5667 163.315 20.628 162.915 20.628ZM168.58 12.292V20.5H166.596V12.292H168.58ZM168.852 9.9C168.852 10.0707 168.818 10.2307 168.748 10.38C168.679 10.5293 168.586 10.66 168.468 10.772C168.356 10.884 168.223 10.9747 168.068 11.044C167.914 11.108 167.748 11.14 167.572 11.14C167.402 11.14 167.239 11.108 167.084 11.044C166.935 10.9747 166.804 10.884 166.692 10.772C166.58 10.66 166.49 10.5293 166.42 10.38C166.356 10.2307 166.324 10.0707 166.324 9.9C166.324 9.724 166.356 9.55867 166.42 9.404C166.49 9.24933 166.58 9.116 166.692 9.004C166.804 8.892 166.935 8.804 167.084 8.74C167.239 8.67067 167.402 8.636 167.572 8.636C167.748 8.636 167.914 8.67067 168.068 8.74C168.223 8.804 168.356 8.892 168.468 9.004C168.586 9.116 168.679 9.24933 168.748 9.404C168.818 9.55867 168.852 9.724 168.852 9.9ZM174.627 12.164C175.235 12.164 175.787 12.2627 176.283 12.46C176.784 12.6573 177.211 12.9373 177.563 13.3C177.92 13.6627 178.195 14.1053 178.387 14.628C178.579 15.1507 178.675 15.7347 178.675 16.38C178.675 17.0307 178.579 17.6173 178.387 18.14C178.195 18.6627 177.92 19.108 177.563 19.476C177.211 19.844 176.784 20.1267 176.283 20.324C175.787 20.5213 175.235 20.62 174.627 20.62C174.013 20.62 173.456 20.5213 172.955 20.324C172.453 20.1267 172.024 19.844 171.667 19.476C171.315 19.108 171.04 18.6627 170.843 18.14C170.651 17.6173 170.555 17.0307 170.555 16.38C170.555 15.7347 170.651 15.1507 170.843 14.628C171.04 14.1053 171.315 13.6627 171.667 13.3C172.024 12.9373 172.453 12.6573 172.955 12.46C173.456 12.2627 174.013 12.164 174.627 12.164ZM174.627 19.1C175.309 19.1 175.813 18.8707 176.139 18.412C176.469 17.9533 176.635 17.2813 176.635 16.396C176.635 15.5107 176.469 14.836 176.139 14.372C175.813 13.908 175.309 13.676 174.627 13.676C173.933 13.676 173.419 13.9107 173.083 14.38C172.752 14.844 172.587 15.516 172.587 16.396C172.587 17.276 172.752 17.948 173.083 18.412C173.419 18.8707 173.933 19.1 174.627 19.1ZM182.43 13.3C182.596 13.1347 182.769 12.9827 182.95 12.844C183.137 12.7 183.332 12.58 183.534 12.484C183.742 12.3827 183.964 12.3053 184.198 12.252C184.433 12.1933 184.689 12.164 184.966 12.164C185.414 12.164 185.812 12.2413 186.158 12.396C186.505 12.5453 186.793 12.7587 187.022 13.036C187.257 13.308 187.433 13.636 187.55 14.02C187.673 14.3987 187.734 14.8173 187.734 15.276V20.5H185.758V15.276C185.758 14.7747 185.644 14.388 185.414 14.116C185.185 13.8387 184.836 13.7 184.366 13.7C184.025 13.7 183.705 13.7773 183.406 13.932C183.108 14.0867 182.825 14.2973 182.558 14.564V20.5H180.582V12.292H181.79C182.046 12.292 182.214 12.412 182.294 12.652L182.43 13.3ZM198.376 14.748C198.771 14.748 199.115 14.7 199.408 14.604C199.701 14.5027 199.944 14.3613 200.136 14.18C200.333 13.9933 200.48 13.7693 200.576 13.508C200.672 13.2413 200.72 12.9453 200.72 12.62C200.72 12.3107 200.672 12.0307 200.576 11.78C200.48 11.5293 200.336 11.316 200.144 11.14C199.952 10.964 199.709 10.8307 199.416 10.74C199.123 10.644 198.776 10.596 198.376 10.596H196.768V14.748H198.376ZM198.376 8.932C199.149 8.932 199.819 9.02267 200.384 9.204C200.949 9.38533 201.416 9.63867 201.784 9.964C202.152 10.2893 202.424 10.6787 202.6 11.132C202.781 11.5853 202.872 12.0813 202.872 12.62C202.872 13.18 202.779 13.6947 202.592 14.164C202.405 14.628 202.125 15.028 201.752 15.364C201.379 15.7 200.909 15.9613 200.344 16.148C199.784 16.3347 199.128 16.428 198.376 16.428H196.768V20.5H194.616V8.932H198.376ZM207.867 12.164C208.475 12.164 209.027 12.2627 209.523 12.46C210.025 12.6573 210.451 12.9373 210.803 13.3C211.161 13.6627 211.435 14.1053 211.627 14.628C211.819 15.1507 211.915 15.7347 211.915 16.38C211.915 17.0307 211.819 17.6173 211.627 18.14C211.435 18.6627 211.161 19.108 210.803 19.476C210.451 19.844 210.025 20.1267 209.523 20.324C209.027 20.5213 208.475 20.62 207.867 20.62C207.254 20.62 206.697 20.5213 206.195 20.324C205.694 20.1267 205.265 19.844 204.907 19.476C204.555 19.108 204.281 18.6627 204.083 18.14C203.891 17.6173 203.795 17.0307 203.795 16.38C203.795 15.7347 203.891 15.1507 204.083 14.628C204.281 14.1053 204.555 13.6627 204.907 13.3C205.265 12.9373 205.694 12.6573 206.195 12.46C206.697 12.2627 207.254 12.164 207.867 12.164ZM207.867 19.1C208.55 19.1 209.054 18.8707 209.379 18.412C209.71 17.9533 209.875 17.2813 209.875 16.396C209.875 15.5107 209.71 14.836 209.379 14.372C209.054 13.908 208.55 13.676 207.867 13.676C207.174 13.676 206.659 13.9107 206.323 14.38C205.993 14.844 205.827 15.516 205.827 16.396C205.827 17.276 205.993 17.948 206.323 18.412C206.659 18.8707 207.174 19.1 207.867 19.1ZM215.687 13.716C215.943 13.2253 216.247 12.8413 216.599 12.564C216.951 12.2813 217.367 12.14 217.847 12.14C218.226 12.14 218.53 12.2227 218.759 12.388L218.631 13.868C218.604 13.964 218.564 14.0333 218.511 14.076C218.463 14.1133 218.396 14.132 218.311 14.132C218.231 14.132 218.111 14.1187 217.951 14.092C217.796 14.0653 217.644 14.052 217.495 14.052C217.276 14.052 217.082 14.084 216.911 14.148C216.74 14.212 216.586 14.3053 216.447 14.428C216.314 14.5453 216.194 14.6893 216.087 14.86C215.986 15.0307 215.89 15.2253 215.799 15.444V20.5H213.823V12.292H214.983C215.186 12.292 215.327 12.3293 215.407 12.404C215.487 12.4733 215.54 12.6013 215.567 12.788L215.687 13.716ZM222.928 20.628C222.213 20.628 221.664 20.428 221.28 20.028C220.901 19.6227 220.712 19.0653 220.712 18.356V13.772H219.872C219.765 13.772 219.674 13.7373 219.6 13.668C219.525 13.5987 219.488 13.4947 219.488 13.356V12.572L220.808 12.356L221.224 10.116C221.25 10.0093 221.301 9.92667 221.376 9.868C221.45 9.80933 221.546 9.78 221.664 9.78H222.688V12.364H224.88V13.772H222.688V18.22C222.688 18.476 222.749 18.676 222.872 18.82C223 18.964 223.173 19.036 223.392 19.036C223.514 19.036 223.616 19.0227 223.696 18.996C223.781 18.964 223.853 18.932 223.912 18.9C223.976 18.868 224.032 18.8387 224.08 18.812C224.128 18.78 224.176 18.764 224.224 18.764C224.282 18.764 224.33 18.78 224.368 18.812C224.405 18.8387 224.445 18.8813 224.488 18.94L225.08 19.9C224.792 20.14 224.461 20.3213 224.088 20.444C223.714 20.5667 223.328 20.628 222.928 20.628ZM230.881 16.996C230.31 17.0227 229.83 17.0733 229.441 17.148C229.051 17.2173 228.739 17.308 228.505 17.42C228.27 17.532 228.102 17.6627 228.001 17.812C227.899 17.9613 227.849 18.124 227.849 18.3C227.849 18.6467 227.95 18.8947 228.153 19.044C228.361 19.1933 228.63 19.268 228.961 19.268C229.366 19.268 229.715 19.196 230.009 19.052C230.307 18.9027 230.598 18.6787 230.881 18.38V16.996ZM226.353 13.436C227.297 12.572 228.433 12.14 229.761 12.14C230.241 12.14 230.67 12.22 231.049 12.38C231.427 12.5347 231.747 12.7533 232.009 13.036C232.27 13.3133 232.467 13.6467 232.601 14.036C232.739 14.4253 232.809 14.852 232.809 15.316V20.5H231.913C231.726 20.5 231.582 20.4733 231.481 20.42C231.379 20.3613 231.299 20.2467 231.241 20.076L231.065 19.484C230.857 19.6707 230.654 19.836 230.457 19.98C230.259 20.1187 230.054 20.236 229.841 20.332C229.627 20.428 229.398 20.5 229.153 20.548C228.913 20.6013 228.646 20.628 228.353 20.628C228.006 20.628 227.686 20.5827 227.393 20.492C227.099 20.396 226.846 20.2547 226.633 20.068C226.419 19.8813 226.254 19.6493 226.137 19.372C226.019 19.0947 225.961 18.772 225.961 18.404C225.961 18.196 225.995 17.9907 226.065 17.788C226.134 17.58 226.246 17.3827 226.401 17.196C226.561 17.0093 226.766 16.8333 227.017 16.668C227.267 16.5027 227.574 16.3587 227.937 16.236C228.305 16.1133 228.731 16.0147 229.217 15.94C229.702 15.86 230.257 15.812 230.881 15.796V15.316C230.881 14.7667 230.763 14.3613 230.529 14.1C230.294 13.8333 229.955 13.7 229.513 13.7C229.193 13.7 228.926 13.7373 228.713 13.812C228.505 13.8867 228.321 13.972 228.161 14.068C228.001 14.1587 227.854 14.2413 227.721 14.316C227.593 14.3907 227.449 14.428 227.289 14.428C227.15 14.428 227.033 14.3933 226.937 14.324C226.841 14.2493 226.763 14.164 226.705 14.068L226.353 13.436ZM237.07 8.612V20.5H235.094V8.612H237.07Z" fill="white"/>
<defs>
<linearGradient id="paint0_linear_11590_24737" x1="0" y1="14.5" x2="29" y2="14.5" gradientUnits="userSpaceOnUse">
<stop stop-color="#A5DEF2"/>
<stop offset="1" stop-color="#9EA1D9"/>
</linearGradient>
<clipPath id="clip0_11590_24737">
<rect width="29" height="29" fill="white"/>
</clipPath>
</defs>
</svg>
