<svg width="109" height="36" viewBox="0 0 109 36" fill="none" xmlns="http://www.w3.org/2000/svg">
<path d="M108.068 0H0.163086V36H108.068V0Z" fill="#E2231A"/>
<path d="M47.2146 12.133C45.6198 12.133 43.805 12.8714 42.6962 14.3517V12.3653H38.8916V26.2201H42.6984V18.337C42.6984 16.9173 43.7983 15.4089 45.8353 15.4089C47.4065 15.4089 49.0394 16.5043 49.0394 18.337V26.2201H52.844V17.6311C52.844 14.4449 50.5635 12.1318 47.2168 12.1318" fill="white"/>
<path d="M79.8825 12.3657L76.4426 21.8043L73.0028 12.3657H68.6572L74.3585 26.2171H78.5267L84.228 12.3657H79.8825Z" fill="white"/>
<path d="M34.8415 21.9614C33.24 23.1454 32.3253 23.4293 30.8641 23.4293C29.551 23.4293 28.5218 23.0208 27.7968 22.307L37.5238 18.2668C37.3106 16.7629 36.7382 15.4206 35.8617 14.3993C34.5845 12.9134 32.6923 12.1289 30.3905 12.1289C26.2065 12.1289 23.0518 15.2152 23.0518 19.2914C23.0518 23.4731 26.2133 26.4528 30.808 26.4528C33.3836 26.4528 36.0154 25.2329 37.2477 23.8076L34.8415 21.9614ZM27.532 16.5395C28.1795 15.6698 29.2154 15.1602 30.4578 15.1602C31.8293 15.1602 32.8696 15.9458 33.4072 17.0984L26.761 19.8559C26.5791 18.4407 26.9416 17.3341 27.5331 16.5395" fill="white"/>
<path d="M22.6901 22.7269H14.0427V8.22119H10.1865V26.2195H22.6901V22.7269Z" fill="white"/>
<path d="M91.0604 26.4535C86.899 26.4535 83.6387 23.3537 83.6387 19.2932C83.6387 15.2776 86.9214 12.1318 91.1109 12.1318C95.2713 12.1318 98.5316 15.2316 98.5316 19.2932C98.5316 23.3077 95.2489 26.4535 91.0604 26.4535ZM91.0604 15.3921C88.9348 15.3921 87.3928 17.0026 87.3928 19.2932C87.3928 21.4806 89.0268 23.1943 91.1109 23.1943C93.2366 23.1943 94.7786 21.539 94.7786 19.2932C94.7786 17.1059 93.1446 15.3921 91.0604 15.3921Z" fill="white"/>
<path d="M61.7663 26.4535C57.6049 26.4535 54.3457 23.3537 54.3457 19.2932C54.3457 15.2776 57.6273 12.1318 61.818 12.1318C65.9783 12.1318 69.2386 15.2316 69.2386 19.2932C69.2386 23.3077 65.9559 26.4535 61.7663 26.4535ZM61.7663 15.3921C59.6407 15.3921 58.0998 17.0026 58.0998 19.2932C58.0998 21.4806 59.7327 23.1943 61.818 23.1943C63.9425 23.1943 65.4845 21.539 65.4845 19.2932C65.4845 17.1059 63.8516 15.3921 61.7663 15.3921Z" fill="white"/>
</svg>
