<?xml version="1.0" encoding="UTF-8"?>
<svg id="Layer_1" xmlns="http://www.w3.org/2000/svg" xmlns:xlink="http://www.w3.org/1999/xlink" version="1.1" viewBox="0 0 350 161">
  <!-- Generator: Adobe Illustrator 29.4.0, SVG Export Plug-In . SVG Version: 2.1.0 Build 152)  -->
  <defs>
    <style>
      .st0 {
        fill: none;
      }

      .st1 {
        fill: url(#linear-gradient);
      }

      .st2, .st3 {
        fill: #0b240c;
      }

      .st3 {
        fill-rule: evenodd;
      }

      .st4 {
        fill: #fff;
      }

      .st5 {
        clip-path: url(#clippath);
      }
    </style>
    <linearGradient id="linear-gradient" x1="371.97" y1="-16.34" x2="-65.14" y2="200.9" gradientUnits="userSpaceOnUse">
      <stop offset=".31" stop-color="#09280a"/>
      <stop offset="1" stop-color="#fffcd5"/>
    </linearGradient>
    <clipPath id="clippath">
      <rect class="st0" x="115.18" y="108.02" width="115.64" height="27.96"/>
    </clipPath>
  </defs>
  <rect class="st1" x="-7.59" y="-4.06" width="368.22" height="169.71"/>
  <path class="st4" d="M70.78,40h209.18c13.83,0,25.04,11.21,25.04,25.04h0c0,13.83-11.21,25.04-25.04,25.04H70.78c-13.83,0-25.04-11.21-25.04-25.04h0c0-13.83,11.21-25.04,25.04-25.04Z"/>
  <path class="st3" d="M76.64,68.44c-1.39,1.01-3.11,1.61-4.96,1.61-4.66,0-8.44-3.78-8.44-8.44s3.78-8.44,8.44-8.44,8.44,3.78,8.44,8.44c0,1.85-.6,3.57-1.61,4.96l8.48,8.48-1.87,1.87-8.48-8.48ZM77.48,61.6c0,3.2-2.6,5.8-5.8,5.8s-5.8-2.6-5.8-5.8,2.6-5.8,5.8-5.8,5.8,2.6,5.8,5.8Z"/>
  <path class="st2" d="M113.56,55.44l6.25,15.5c.84,2.05,1.33,3.47,2.26,4.48v.12h-4.8v-.12c.58-.98.26-2.55-.46-4.37l-.61-1.53h-8.39l-.61,1.59c-.72,1.88-.98,3.33-.38,4.31v.12h-4.14v-.12c1.04-.98,1.53-2.43,2.26-4.34l6.13-15.65h2.49ZM111.88,58.97l-3.3,8.56h6.83l-3.41-8.56h-.12ZM123.46,75.54v-.12c.72-1.01.93-2.23.93-4.34v-11.19c0-2.11-.2-3.36-.93-4.34v-.12h4.68v.12c-.72.98-.92,2.23-.92,4.34v11.19c0,2.11.2,3.33.92,4.34v.12h-4.68ZM138.04,75.54v-.12c.58-.81.66-1.68.66-3.36v-8.33h-2.92v-1.91h2.92v-1.79c0-3.44,2.2-5.38,5.26-5.38.9,0,1.79.17,2.43.38v2.49h-.17c-.43-.58-1.3-.98-2.2-.98-1.56,0-2.66.87-2.66,2.86v2.43h3.62v1.91h-3.62v8.33c0,1.65.09,2.55.75,3.36v.12h-4.08ZM152.78,75.89c-3.96,0-6.91-3.01-6.91-7.23s2.95-7.17,6.91-7.17,6.85,2.95,6.85,7.17-2.92,7.23-6.85,7.23ZM152.78,73.95c2.37,0,3.96-2,3.96-5.29s-1.59-5.24-3.96-5.24-4.02,2.02-4.02,5.24,1.53,5.29,4.02,5.29ZM162.4,72.19v-6.74c0-1.65-.17-2.43-.72-3.18v-.17l3.3-.35h.09v3.47h.14c.75-2.55,2.05-3.73,3.99-3.73.43,0,.75.06,1.07.12v2.66c-.38-.12-.72-.14-1.13-.14-2.08,0-4.08,1.74-4.08,5.44v2.63c0,1.65.09,2.43.72,3.24v.12h-4.02v-.12c.55-.81.64-1.59.64-3.24ZM186.54,65.76l8.07,9.72v.06h-3.67l-7.61-9.49h-2.08v4.97c0,2.2.2,3.38.93,4.4v.12h-4.66v-.12c.72-1.01.93-2.2.93-4.4v-11.16c0-2.05-.17-3.33-.93-4.31v-.12h7.03c4.43,0,7.03,2.11,7.03,5.24,0,2.55-1.85,4.51-5.03,5.09ZM181.25,57.38v6.71h2.78c3.01,0,4.54-1.3,4.54-3.38,0-2.2-1.56-3.33-4.51-3.33h-2.81ZM205.97,72.33l.32,1.42c-1.36,1.39-3.01,2.14-5.03,2.14-3.96,0-7-2.83-7-7.29,0-4.08,2.72-7.12,6.39-7.12,3.15,0,5.47,2,5.47,5.73v1.1h-9.2c.12,3.47,2.11,5.32,5.03,5.32,1.53,0,2.75-.43,4.02-1.3ZM200.47,63.25c-1.91,0-3.1,1.24-3.44,3.36h6.39c-.06-2.11-1.21-3.36-2.95-3.36ZM212.1,75.89c-1.5,0-3.07-.49-4.19-1.3v-2.63h.14c1.1,1.42,2.55,2.08,4.02,2.08,1.36,0,2.69-.58,2.69-1.88,0-.93-.58-1.33-1.88-1.91l-2.03-.87c-1.82-.81-2.69-2.05-2.69-3.64,0-2.43,2.14-4.25,5-4.25,1.33,0,2.69.35,3.67.9v2.6h-.14c-.81-1.07-2.08-1.65-3.47-1.65s-2.66.67-2.66,1.85c0,.9.52,1.42,1.82,1.97l2.14.9c1.76.72,2.66,1.85,2.66,3.56,0,2.57-2.26,4.28-5.09,4.28ZM230.5,72.33l.32,1.42c-1.36,1.39-3.01,2.14-5.03,2.14-3.96,0-7-2.83-7-7.29,0-4.08,2.72-7.12,6.39-7.12,3.15,0,5.47,2,5.47,5.73v1.1h-9.2c.12,3.47,2.11,5.32,5.03,5.32,1.53,0,2.75-.43,4.02-1.3ZM225.01,63.25c-1.91,0-3.1,1.24-3.44,3.36h6.39c-.06-2.11-1.21-3.36-2.95-3.36ZM244.85,73.83l.2,1.33c-.64.46-1.33.69-2.2.69-1.33,0-2.43-.9-2.52-2.31v-.06h-.12c-1.07,1.68-2.52,2.4-4.11,2.4-2.05,0-3.7-1.42-3.7-3.47,0-2.34,2.03-3.41,5-4.19l2.89-.75v-.9c0-2.17-1.39-3.01-3.15-3.01-1.39,0-2.75.49-4.08,1.33l-.29-1.48c1.33-1.13,3.12-1.94,5.06-1.94,2.86,0,5.09,1.56,5.09,5.18v6.16c0,.87.38,1.21,1.01,1.21.32,0,.61-.09.9-.2ZM237.04,73.86c1.45,0,3.27-1.36,3.27-3.7v-1.16l-2.17.69c-1.88.61-2.95,1.16-2.95,2.4,0,1.13.84,1.76,1.85,1.76ZM247.05,72.19v-6.74c0-1.65-.17-2.43-.72-3.18v-.17l3.3-.35h.09v3.47h.14c.75-2.55,2.05-3.73,3.99-3.73.43,0,.75.06,1.07.12v2.66c-.38-.12-.72-.14-1.13-.14-2.08,0-4.08,1.74-4.08,5.44v2.63c0,1.65.09,2.43.72,3.24v.12h-4.02v-.12c.55-.81.64-1.59.64-3.24ZM262.45,75.89c-4.19,0-7.03-3.07-7.03-7.14s2.95-7.26,7.14-7.26c1.36,0,2.72.32,3.76.87v2.69h-.17c-.72-1.01-1.99-1.71-3.36-1.71-2.8,0-4.6,2.08-4.6,5.06,0,3.27,2.02,5.24,4.92,5.24,1.36,0,2.55-.4,3.67-1.13l.35,1.39c-1.3,1.27-2.89,2-4.69,2ZM269.38,72.13v-13.39c0-1.62-.17-2.55-.72-3.33v-.14l3.3-.35h.09v8.94h.15c.98-1.5,2.34-2.37,4.11-2.37,2.52,0,4.48,1.76,4.48,5.24v5.41c0,1.65.09,2.49.64,3.3v.12h-3.9v-.12c.49-.81.58-1.65.58-3.3v-5.35c0-2.08-.98-3.18-2.6-3.18-1.76,0-3.44,1.59-3.44,3.96v4.57c0,1.65.12,2.49.64,3.3v.12h-3.9v-.12c.55-.81.61-1.65.61-3.3Z"/>
  <g class="st5">
    <g>
      <path class="st4" d="M162.36,130.6h-3.16c-.22,0-.39-.17-.39-.39v-16.78c0-2.29.53-3.9.72-4.4.03-.08-.03-.17-.12-.17h-5.77c-.08,0-.15.08-.12.17.18.5.69,2.12.69,4.43v14.71c0,2.56-.51,4.25-.69,4.76-.03.08.03.17.12.17h16.62c.06,0,.12-.05.12-.12v-4.67c0-.09-.1-.16-.18-.11-.85.47-4.53,2.41-7.84,2.41h0Z"/>
      <path class="st4" d="M193.72,128.92c0,2.25-.46,3.59-.72,4.05-.05.08.02.18.11.18h5.55c.09,0,.14-.09.11-.18-.25-.5-.74-1.97-.74-4.02v-6.69c0-2.25-.5-3.99-1.5-5.21-1.01-1.22-2.44-1.84-4.28-1.84-3.16,0-5.44,2.49-6.38,4.26-.1.19-.39.12-.39-.1v-3.47c0-.06-.05-.12-.12-.12h-4.38c-.09,0-.14.09-.11.17.23.49.7,1.97.7,4.02v8.95c0,2.25-.46,3.59-.72,4.05-.05.08.02.18.11.18h5.55c.09,0,.14-.09.11-.17-.24-.5-.72-1.97-.72-4.02v-5.1c0-.69.13-1.38.39-2.02.39-.94.88-1.7,1.48-2.28.83-.83,1.78-1.25,2.87-1.25,1.03,0,1.8.35,2.31,1.05.51.7.77,1.73.77,3.08v6.5-.02Z"/>
      <path class="st4" d="M172.84,133.15h5.57c.09,0,.15-.09.11-.18-.24-.5-.72-1.97-.72-4.02v-13.05c0-.06-.05-.12-.12-.12h-4.82c-.09,0-.15.09-.11.17.24.49.71,1.97.71,4.02v8.95c0,2.25-.47,3.59-.72,4.05-.05.08.02.18.11.18h0Z"/>
      <path class="st4" d="M175.3,113.71c1.55,0,2.82-1.28,2.82-2.85s-1.26-2.85-2.82-2.85-2.82,1.28-2.82,2.85,1.26,2.85,2.82,2.85Z"/>
      <path class="st4" d="M223.58,119.5c0,.22.26.29.36.1,1.22-2.37,2.86-3.84,4.86-3.84h1.9c.06,0,.12.06.12.12v3.61c0,.06-.05.12-.12.12h-3.03c-1.38,0-2.67.71-3.7,1.84-.25.27-.38.62-.39.98v6.52c0,2.05.48,3.53.72,4.02.04.08-.02.17-.11.17h-5.57c-.09,0-.16-.1-.11-.18.26-.46.72-1.79.72-4.05v-8.95c0-2.05-.47-3.53-.71-4.02-.04-.08.02-.18.11-.18h4.82c.06,0,.12.06.12.12v3.62Z"/>
      <path class="st4" d="M209.99,131.32c-3.24,0-4.84-2.46-5.01-6.39,0-.07.05-.13.12-.13h12.05c.07,0,.13-.05.13-.13-.05-6.11-3.66-9.5-8.53-9.5s-8.71,3.62-8.71,9.13c0,5.91,3.59,9.27,9.39,9.27,3.95,0,6.83-2.3,7.68-6.05.02-.07-.05-.15-.12-.15h-1.43c-.05,0-.1.04-.12.08-.74,2.4-3.06,3.85-5.46,3.85h.01ZM208.78,117.44c2.1,0,3.45,1.69,3.52,4.9,0,.06-.05.13-.13.13h-7.03c-.07,0-.13-.06-.12-.13.17-3.1,1.62-4.89,3.77-4.89h0Z"/>
      <path class="st4" d="M142.17,116.91v-7.88c0-.08-.06-.15-.14-.15h-7.88s-.07.02-.1.05l-4.52,4.55s-.06.05-.1.05h-8.3s-.07.02-.1.05l-5.8,5.83c-.09.09-.03.26.1.26h7.48c.22,0,.39.17.39.4v7.83c0,.08.06.15.14.15h7.78c.22,0,.39.18.39.39v7.54c0,.13.16.2.25.11l5.72-5.76s.05-.06.05-.11v-8.5s.02-.08.04-.11l4.55-4.59s.04-.06.04-.11v.03ZM130.08,120.63v-6.11c0-.22.17-.39.39-.39h6.08c.22,0,.39.17.39.39v6.11c0,.22-.17.39-.39.39h-6.08c-.22,0-.39-.17-.39-.39Z"/>
    </g>
  </g>
</svg>