<svg xmlns="http://www.w3.org/2000/svg" width="60" height="60" style="width:100%;height:100%"><path fill="#F3F3F3" fill-opacity=".8" d="M17.531 4.018a5.205 5.205 0 110 10.41c-2.87 0-5.2-2.33-5.2-5.21 0-2.87 2.33-5.2 5.2-5.2zm-4.875 11.875a5.205 5.205 0 110 10.41c-2.87 0-5.2-2.33-5.2-5.21 0-2.87 2.33-5.2 5.2-5.2zm5 12a5.205 5.205 0 110 10.41c-2.87 0-5.2-2.33-5.2-5.21 0-2.87 2.33-5.2 5.2-5.2zm12.25 5.25a5.205 5.205 0 110 10.41c-2.87 0-5.2-2.33-5.2-5.21 0-2.87 2.33-5.2 5.2-5.2zm12.125-5.375a5.205 5.205 0 110 10.41c-2.87 0-5.2-2.33-5.2-5.21 0-2.87 2.33-5.2 5.2-5.2zm4.875-11.875a5.205 5.205 0 110 10.41c-2.87 0-5.2-2.33-5.2-5.21 0-2.87 2.33-5.2 5.2-5.2zm-3.5-12.125a5.205 5.205 0 110 10.41c-2.87 0-5.2-2.33-5.2-5.21 0-2.87 2.33-5.2 5.2-5.2zm-13.5-4.625a5.205 5.205 0 110 10.41c-2.87 0-5.2-2.33-5.2-5.21 0-2.87 2.33-5.2 5.2-5.2z"/></svg>