<svg class="icon" viewBox="0 0 1024 1024" xmlns="http://www.w3.org/2000/svg" width="200" height="200"><path d="M419.31 119.172a119.172 119.172 0 10238.345 0 119.172 119.172 0 10-238.345 0zm39.724 820.966a79.448 79.448 0 10158.897 0 79.448 79.448 0 10-158.897 0zm342.669-729.883a39.724 39.724 0 1056.18 56.179 39.724 39.724 0 10-56.18-56.178zM170.329 744.122a99.31 99.31 0 10140.446 140.446 99.31 99.31 0 10-140.446-140.446zm778.637-254.191a52.966 52.966 0 100 105.931 52.966 52.966 0 100-105.931zM128 423.725a105.931 105.931 0 100 211.861 105.931 105.931 0 100-211.862zM876.608 774.15a66.207 66.207 0 10-93.63 93.63 66.207 66.207 0 1093.63-93.63zM333.379 165.379a112.552 112.552 0 10-159.172 159.173 112.552 112.552 0 10159.172-159.173z" fill="#4E8EF1"/></svg>