<svg width="350" height="160" viewBox="0 0 350 160" fill="none" xmlns="http://www.w3.org/2000/svg">
<rect width="350" height="160" fill="url(#paint0_linear_8634_3420)"/>
<rect width="350" height="160" stroke="#991A49"/>
<g clip-path="url(#clip0_8634_3420)">
<path d="M176.322 91.0935L169.462 87.0499L168.952 87.8427C167.389 90.2762 165.248 91.5143 162.603 91.5143C158.063 91.5143 154.643 88.1172 154.649 83.6161C154.649 79.115 158.075 75.7301 162.615 75.7301C165.304 75.7301 167.322 76.9011 168.964 79.4139L169.475 80.1946L176.371 76.1448L175.774 75.291C172.483 70.5642 168.177 68.2649 162.622 68.2588C152.114 68.2588 146.436 76.1631 146.43 83.6161C146.43 91.063 152.09 98.9856 162.603 98.9917C167.955 98.9917 173.012 96.296 175.793 91.9474L176.328 91.1057L176.322 91.0935Z" fill="white"/>
<path d="M175.977 98.9915H185.463L188.281 92.0447H202.516L205.327 99.0037H214.856L197.859 58.2744H189.4L191.652 63.672L175.977 98.9976M195.46 74.3392L199.298 83.8964H191.566L195.46 74.3392Z" fill="white"/>
<path d="M218.781 99.0159H227.104L227.117 80.7372H232.542V73.0707H227.117V69.4418C227.117 67.8865 228.169 66.2337 230.113 66.2337C231.183 66.2337 231.829 66.4167 232.469 66.6911L233.398 67.0876L236.855 59.6041L235.858 59.2015C234.314 58.5733 232.155 58.3477 230.654 58.3477C226.877 58.3477 223.77 59.5675 221.654 61.8851C219.808 63.91 218.787 66.7216 218.787 69.8016V73.0707H215.108V80.7433H218.781L218.769 99.0281L218.781 99.0159Z" fill="white"/>
<path d="M107.182 58.0366V98.9549L116.225 98.961L116.238 75.5652L125.004 82.0424L133.776 75.5652V98.9732H142.807L142.832 58.0366L125.01 71.3874L107.182 58.0366Z" fill="white"/>
<path d="M251.287 68.3989C240.81 68.3989 235.151 76.285 235.145 83.7075C235.145 91.1361 240.792 99.0282 251.268 99.0343H251.281C256.085 98.9855 260.588 96.8143 264.076 92.8987L257.285 89.2271C255.544 90.9958 253.428 91.9228 251.096 91.9228C247.676 91.9228 244.643 89.6601 243.855 86.7082L266.494 86.7204V84.6833C266.5 73.455 257.605 68.405 251.281 68.3989H251.287ZM244.028 79.9322C245.117 77.1388 247.46 75.5104 250.487 75.5104C253.551 75.5104 255.937 77.1083 257.205 79.9383H244.028V79.9322Z" fill="white"/>
<path d="M285.318 68.417C274.842 68.417 269.182 76.303 269.176 83.7255C269.176 91.1541 274.824 99.0463 285.3 99.0524H285.312C290.117 99.0036 294.626 96.8323 298.108 92.9167L291.316 89.2451C289.575 91.0139 287.459 91.9409 285.128 91.9409C281.707 91.9409 278.675 89.6782 277.881 86.7262L300.519 86.7384V84.7014C300.526 73.4731 291.63 68.4231 285.306 68.417H285.318ZM278.059 79.9502C279.148 77.1569 281.486 75.5284 284.519 75.5284C287.582 75.5284 289.969 77.1264 291.236 79.9563H278.059V79.9502Z" fill="white"/>
<path d="M299.467 67.0508H302.992V67.7034H301.608V71.3628H300.845V67.7034H299.467V67.0508Z" fill="white"/>
<path d="M303.484 67.0508H304.555L305.754 70.4296H305.766L306.935 67.0508H307.993V71.3689H307.267V68.0388H307.255L306.049 71.3689H305.422L304.216 68.0388H304.204V71.3689H303.478V67.0508H303.484Z" fill="white"/>
<path d="M67.3555 68.2525L45 58V98.7414L67.3555 109L89.711 98.7414V58L67.3555 68.2525ZM80.551 92.9413L67.3555 98.9915L54.16 92.9413V72.2046L67.3555 78.2548L80.551 72.2046V92.9413Z" fill="white"/>
</g>
<defs>
<linearGradient id="paint0_linear_8634_3420" x1="181.5" y1="51" x2="349.5" y2="159.5" gradientUnits="userSpaceOnUse">
<stop stop-color="#CA231F"/>
<stop offset="1" stop-color="#991A49"/>
</linearGradient>
<clipPath id="clip0_8634_3420">
<rect width="263" height="51" fill="white" transform="translate(45 58)"/>
</clipPath>
</defs>
</svg>
