<svg width="351" height="162" viewBox="0 0 351 162" fill="none" xmlns="http://www.w3.org/2000/svg">
<rect x="4" y="4" width="343" height="154" fill="#FFE01A" stroke="#FFE01A" stroke-width="8"/>
<path fill-rule="evenodd" clip-rule="evenodd" d="M114.293 98.4022V65.1082H122.66V69.4755H123.884C124.425 68.3128 125.421 67.2068 126.929 66.1575C128.409 65.1082 130.657 64.5693 133.674 64.5693C136.292 64.5693 138.569 65.1649 140.504 66.356C142.468 67.5471 143.976 69.1636 145.057 71.2622C146.139 73.3324 146.679 75.7713 146.679 78.5506V98.4306H138.199V79.2312C138.199 76.7356 137.573 74.8355 136.349 73.5877C135.125 72.3398 133.361 71.7159 131.056 71.7159C128.437 71.7159 126.417 72.5667 124.994 74.2966C123.543 76.0266 122.831 78.4371 122.831 81.5V98.4306L114.293 98.4022Z" fill="#1E1F1D"/>
<path fill-rule="evenodd" clip-rule="evenodd" d="M168.592 91.8229C171.211 91.8229 173.345 90.9721 175.053 89.2989C176.76 87.6257 177.614 85.2151 177.614 82.0956V81.4149C177.614 78.2954 176.76 75.8848 175.081 74.2116C173.402 72.5384 171.239 71.6876 168.592 71.6876C165.974 71.6876 163.84 72.5384 162.132 74.2116C160.425 75.8848 159.571 78.2954 159.571 81.4149V82.0956C159.571 85.2151 160.425 87.6257 162.132 89.2989C163.811 90.9721 165.974 91.8229 168.592 91.8229ZM168.592 99.3382C165.263 99.3382 162.275 98.6575 159.628 97.3246C156.981 95.9917 154.875 94.0349 153.367 91.4826C151.83 88.9302 151.09 85.8674 151.09 82.2941V81.2164C151.09 77.6431 151.859 74.5803 153.367 72.0279C154.904 69.4756 156.981 67.5188 159.628 66.1859C162.275 64.853 165.263 64.1724 168.592 64.1724C171.922 64.1724 174.91 64.853 177.557 66.1859C180.204 67.5188 182.281 69.4756 183.818 72.0279C185.355 74.5803 186.094 77.6431 186.094 81.2164V82.2941C186.094 85.8674 185.326 88.9302 183.818 91.4826C182.281 94.0349 180.204 95.9917 177.557 97.3246C174.882 98.6575 171.922 99.3382 168.592 99.3382Z" fill="#1E1F1D"/>
<path fill-rule="evenodd" clip-rule="evenodd" d="M190.534 98.402V65.1079H198.901V68.8514H200.125C200.609 67.5185 201.491 66.611 202.629 65.9871C203.767 65.3631 205.048 65.1079 206.585 65.1079H210.598V72.0844H206.414C203.967 72.1411 202.487 73.0486 201.092 74.2113C199.698 75.3457 199.015 77.104 199.015 79.4862V98.4303L190.534 98.402Z" fill="#1E1F1D"/>
<path fill-rule="evenodd" clip-rule="evenodd" d="M222.521 98.4021C220.33 98.4021 218.537 97.7215 217.171 96.3602C215.805 94.999 215.122 93.184 215.122 90.8869V72.0845H206.755V65.1081H215.122V54.7568H223.603V65.1081H232.767V72.0845H223.603V89.4122C223.603 90.7451 224.229 91.4257 225.481 91.4257H231.941V98.4021H222.521Z" fill="#1E1F1D"/>
<path fill-rule="evenodd" clip-rule="evenodd" d="M251.749 91.8229C254.367 91.8229 256.501 90.9721 258.209 89.2989C259.916 87.6257 260.77 85.2151 260.77 82.0956V81.4149C260.77 78.2954 259.916 75.8848 258.237 74.2116C256.558 72.5384 254.395 71.6876 251.749 71.6876C249.131 71.6876 246.996 72.5384 245.289 74.2116C243.581 75.8848 242.727 78.2954 242.727 81.4149V82.0956C242.727 85.2151 243.581 87.6257 245.289 89.2989C246.996 90.9721 249.159 91.8229 251.749 91.8229ZM251.749 99.3382C248.419 99.3382 245.431 98.6575 242.784 97.3246C240.138 95.9917 238.032 94.0349 236.523 91.4826C234.987 88.9302 234.218 85.8674 234.218 82.2941V81.2164C234.218 77.6431 234.987 74.5803 236.523 72.0279C238.06 69.4756 240.138 67.5188 242.784 66.1859C245.431 64.853 248.419 64.1724 251.749 64.1724C255.078 64.1724 258.067 64.853 260.713 66.1859C263.36 67.5188 265.437 69.4756 266.974 72.0279C268.511 74.5803 269.251 77.6431 269.251 81.2164V82.2941C269.251 85.8674 268.482 88.9302 266.974 91.4826C265.437 94.0349 263.36 95.9917 260.713 97.3246C258.067 98.6575 255.078 99.3382 251.749 99.3382Z" fill="#1E1F1D"/>
<path fill-rule="evenodd" clip-rule="evenodd" d="M273.69 98.4022V65.1082H282.057V69.4755H283.281C283.822 68.3128 284.818 67.2068 286.326 66.1575C287.806 65.1082 290.054 64.5693 293.071 64.5693C295.689 64.5693 297.966 65.1649 299.901 66.356C301.864 67.5471 303.373 69.1636 304.454 71.2622C305.536 73.3608 306.076 75.7713 306.076 78.5506V98.4306H297.596V79.2312C297.596 76.7356 296.97 74.8355 295.746 73.5877C294.522 72.3398 292.758 71.7159 290.453 71.7159C287.834 71.7159 285.814 72.5667 284.391 74.2966C282.968 76.0266 282.228 78.4371 282.228 81.5V98.4306L273.69 98.4022Z" fill="#1E1F1D"/>
<path fill-rule="evenodd" clip-rule="evenodd" d="M101.003 81.4998C101.003 98.7424 86.9164 112.78 69.6135 112.78C52.3107 112.78 38.2236 98.7424 38.2236 81.4998C38.2236 64.2288 52.2822 50.2192 69.6135 50.2192C74.3946 50.2192 78.9479 51.2969 82.9891 53.197L77.7811 59.8898C75.2483 58.9256 72.4878 58.4151 69.6135 58.4151C57.4048 58.4151 47.3589 67.8589 46.5051 79.8266C46.4766 80.0818 46.4766 80.3087 46.4766 80.5639C46.4766 80.8759 46.4482 81.1878 46.4482 81.5281C46.4482 94.2616 56.8356 104.613 69.6135 104.613C82.3914 104.613 92.7788 94.2616 92.7788 81.5281C92.7788 79.8266 92.5796 78.1534 92.2381 76.5652L98.2998 68.7947C100.036 72.6516 101.003 76.9623 101.003 81.4998Z" fill="white"/>
<path fill-rule="evenodd" clip-rule="evenodd" d="M94.6001 62.5838L70.7518 93.2121L55.6118 79.7129L61.1043 73.5873L69.6704 81.216L88.7661 56.7134C90.9574 58.4149 92.9211 60.3718 94.6001 62.5838Z" fill="#1E1F1D"/>
<path fill-rule="evenodd" clip-rule="evenodd" d="M309.264 68.9932V65.0796H310.658L311.398 68.3126H311.569L312.309 65.0796H313.703V68.9932H312.963V65.7602H312.793L312.053 68.9932H310.914L310.174 65.7602H310.004V68.9932H309.264ZM306.703 68.9932V65.7602H305.422V65.0796H308.723V65.7602H307.442V68.9932H306.703Z" fill="#1E1F1D"/>
</svg>
