<svg width="21" height="21" fill="none" xmlns="http://www.w3.org/2000/svg"><rect x="1.725" y="1.794" width="18" height="18" rx="1.6" fill="#010101"/><path d="M18.744 10.794c0 4.43-3.596 8.02-8.032 8.02a8.027 8.027 0 01-7.729-5.834l3.079 1.27a2.272 2.272 0 004.498-.553l2.732-1.946a3.031 3.031 0 003.098-3.023 3.03 3.03 0 00-6.06 0v.038l-1.914 2.772a2.26 2.26 0 00-1.407.391L2.705 10.15a8.027 8.027 0 018.007-7.375c4.436 0 8.032 3.589 8.032 8.019zM7.74 14.943l-.986-.408c.18.377.494.673.88.835a1.709 1.709 0 002.23-.919 1.7 1.7 0 00-2.176-2.247l1.019.42a1.257 1.257 0 01-.967 2.319zm5.62-4.2a2.02 2.02 0 01-2.018-2.015 2.02 2.02 0 012.018-2.015 2.02 2.02 0 012.018 2.015 2.017 2.017 0 01-2.018 2.014zm.003-.505a1.514 1.514 0 100-3.027c-.837 0-1.516.68-1.516 1.513a1.52 1.52 0 001.516 1.514z" fill="#fff"/></svg>